<svg xmlns="http://www.w3.org/2000/svg" viewBox="0 0 19.48 19.92">
	<path d="M15.76,4.63h-.56v-1.15c0-2.37-1.18-3.48-3.71-3.48h-3.51c-2.53,0-3.71,1.11-3.71,3.48v1.15h-.55c-2.39,0-3.71,1.24-3.71,3.48v4.63c0,2.24,1.32,3.48,3.71,3.48h1.31v.23c0,2.24,1.32,3.48,3.71,3.48h2.01c2.39,0,3.71-1.24,3.71-3.48v-.23h1.31c2.39,0,3.71-1.24,3.71-3.48v-4.63c0-2.24-1.32-3.48-3.71-3.48ZM5.67,3.48c0-1.38,.36-2.08,2.31-2.08h3.51c1.96,0,2.31,.7,2.31,2.08v1.15H5.67v-1.15Zm7.39,12.97c0,1.46-.69,2.08-2.31,2.08h-2.01c-1.62,0-2.31-.62-2.31-2.08v-3h6.63v3Zm5.02-3.71c0,1.46-.69,2.08-2.31,2.08h-1.31v-1.38h.3c.39,0,.7-.31,.7-.7s-.31-.7-.7-.7H4.72c-.39,0-.7,.31-.7,.7s.31,.7,.7,.7h.31v1.38h-1.31c-1.62,0-2.31-.62-2.31-2.08v-4.63c0-1.46,.69-2.08,2.31-2.08H15.76c1.62,0,2.31,.62,2.31,2.08v4.63Z" />
	<path d="M7.73,8.34h-3.01c-.39,0-.7,.31-.7,.7s.31,.7,.7,.7h3.01c.39,0,.7-.31,.7-.7s-.31-.7-.7-.7Z" />
</svg>
